<svg xmlns="http://www.w3.org/2000/svg" aria-hidden="true" overflow="hidden" style="position:absolute;width:0;height:0"><defs><symbol id="icon-search" viewBox="0 0 32 32"><path stroke-linecap="round" stroke-linejoin="round" stroke-width="2.667" d="M14.667 25.333c5.891 0 10.667-4.776 10.667-10.667S20.558 3.999 14.667 3.999 4 8.775 4 14.666s4.776 10.667 10.667 10.667zM28 28l-5.8-5.8"/></symbol><symbol id="icon-arrow-right" viewBox="0 0 32 32"><path stroke-linecap="round" stroke-linejoin="round" stroke-width="2.6" d="m15 28 13-13m0 0L15 2m13 13H2"/></symbol><symbol id="icon-close" viewBox="0 0 32 32"><path stroke-linecap="round" stroke-linejoin="round" stroke-width="4.571" d="M29.333 2.667 2.666 29.334m0-26.667 26.667 26.667"/></symbol><symbol id="icon-logo" viewBox="0 0 302 32"><path d="M11.383 18.926 0 0h6.811l7.634 13.12h.091L22.17 0h6.811L17.598 18.926V32h-6.217V18.926zM28.961 26.743V5.257L34.218 0h16.457l5.257 5.257v21.486L50.675 32H34.218l-5.257-5.257zm18.423-.046 2.331-2.331V7.635l-2.331-2.331H37.51l-2.331 2.331v16.731l2.331 2.331h9.874zM60.284 26.514V0h6.217v24.366l2.331 2.331h8.96l2.331-2.331V0h6.217v26.514L80.854 32H65.768l-5.486-5.486zM116.293 21.394V32h-6.217v-9.189l-2.743-3.063h-9.966v12.251H91.15v-32h20.069l4.891 4.937v9.691l-3.109 3.154 3.291 3.611zm-18.926-6.765h11.017l1.6-1.6V6.812l-1.6-1.6H97.367v9.417zM132.168 0h23.131v5.257h-16.914v8.091h15.589v5.166h-15.589v8.229h16.914V32h-23.131V0zM158.748 0h5.577l14.263 21.714h.091V0h5.989v32h-5.577l-14.263-21.669h-.091V32h-5.989V0zM189.48 0h23.131v5.257h-16.914v8.091h15.589v5.166h-15.589v8.229h16.914V32H189.48V0zM241.205 21.394V32h-6.217v-9.189l-2.743-3.063h-9.967v12.251h-6.217v-32h20.07l4.891 4.937v9.691l-3.109 3.154 3.291 3.611zm-18.927-6.765h11.018l1.6-1.6V6.812l-1.6-1.6h-11.018v9.417zM245.31 26.743V5.257L250.567 0h15.909l5.166 5.166v4.891h-6.217V7.451l-2.149-2.149h-9.417l-2.331 2.331v16.731l2.331 2.331h9.509l2.24-2.24v-4.983h-6.857v-5.303h12.891V26.74l-5.257 5.257h-15.817l-5.257-5.257zM283.035 18.926 271.652 0h6.811l7.634 13.12h.091L293.822 0h6.811L289.25 18.926V32h-6.217V18.926z"/></symbol><symbol id="icon-mobile-menu" viewBox="0 0 32 32"><path stroke-linecap="round" stroke-linejoin="round" stroke-width="2" d="M28 13.333H4M28 8H4M28 18.667H4M28 24H4"/></symbol><symbol id="icon-close-mobile" viewBox="0 0 32 32"><path stroke-linecap="round" stroke-linejoin="round" stroke-width="2" d="M24 8 8 24M8 8l16 16"/></symbol><symbol id="icon-arrow-top" viewBox="0 0 31 32"><path d="M16.413 7.652v17.019h-1.811V7.652l-8.509 8.509-1.28-1.28L15.508 4.186l10.695 10.695-1.28 1.28-8.509-8.509z"/></symbol><symbol id="icon-sun" viewBox="0 0 32 32"><path d="m14.254 13.505.363.372L10.151 1.08l5.321 12.466.018-.52.441-13.027.441 13.026.018.52 5.321-12.466-4.466 12.797 9.465-9.702-8.787 10.32 12.331-5.628-11.922 6.449 13.531-.793-13.446 1.707 12.904 4.148-13.155-3.266 10.534 8.53-11.087-7.798 6.741 11.759-7.521-11.276 2.038 13.4-2.94-13.232-2.94 13.232 2.038-13.4-7.521 11.276 6.741-11.759-11.087 7.798 10.534-8.53L.541 20.377l12.904-4.148-13.446-1.707 13.531.793L1.608 8.866l12.331 5.628-8.787-10.32 9.102 9.33zm.931.566-.646.4-.458.607-.208.731.07.757.339.68.562.512.709.275h.76l.709-.275.562-.512.339-.68.07-.757-.208-.731-.458-.607-.646-.4-.747-.14-.747.14z"/></symbol><symbol id="icon-star-18" viewBox="0 0 32 32"><path d="M13.826 3.262c.684-2.106 3.663-2.106 4.348 0l1.932 5.945a2.285 2.285 0 0 0 2.174 1.579h6.251c2.214 0 3.135 2.833 1.344 4.135l-5.057 3.674a2.286 2.286 0 0 0-.83 2.556l1.931 5.945c.684 2.106-1.726 3.857-3.517 2.555l-5.057-3.674a2.286 2.286 0 0 0-2.687 0l-5.057 3.674c-1.791 1.302-4.202-.45-3.517-2.555l1.932-5.945a2.287 2.287 0 0 0-.83-2.556l-5.057-3.674c-1.791-1.302-.871-4.135 1.344-4.135h6.251c.99 0 1.868-.638 2.174-1.579l1.932-5.945z"/></symbol><symbol id="icon-star-24" viewBox="0 0 32 32"><path d="M14.478 2.283c.479-1.474 2.564-1.474 3.043 0l2.43 7.478a1.6 1.6 0 0 0 1.522 1.106h7.863c1.55 0 2.194 1.983.94 2.894l-6.361 4.622a1.6 1.6 0 0 0-.581 1.789l2.43 7.478c.479 1.474-1.208 2.7-2.462 1.789l-6.361-4.622a1.602 1.602 0 0 0-1.881 0l-6.361 4.622c-1.254.911-2.941-.315-2.462-1.789l2.43-7.478a1.6 1.6 0 0 0-.581-1.789l-6.361-4.622c-1.254-.911-.61-2.894.94-2.894h7.863a1.6 1.6 0 0 0 1.522-1.106l2.43-7.478z"/></symbol><symbol id="icon-trash" viewBox="0 0 32 32"><path stroke-linecap="round" stroke-linejoin="round" stroke-width="2.4" d="M21.333 8V6.933c0-1.493 0-2.24-.291-2.811a2.666 2.666 0 0 0-1.165-1.165c-.57-.291-1.317-.291-2.811-.291h-2.133c-1.493 0-2.24 0-2.811.291-.502.256-.91.664-1.165 1.165-.291.57-.291 1.317-.291 2.811V8m2.667 7.333V22m5.334-6.667V22M4 8h24m-2.667 0v14.933c0 2.24 0 3.36-.436 4.216a3.996 3.996 0 0 1-1.748 1.748c-.856.436-1.976.436-4.216.436h-5.867c-2.24 0-3.36 0-4.216-.436a3.996 3.996 0 0 1-1.748-1.748c-.436-.856-.436-1.976-.436-4.216V8"/></symbol><symbol id="icon-inverted-commas" viewBox="0 0 32 32"><path d="M8.201 17.469c1.546-.613 2.785-.452 3.719.481s1.21 2.421.831 4.463c-.292 1.517-.933 2.683-1.925 3.5-.963.787-2.085 1.181-3.369 1.181-1.75 0-2.96-.671-3.631-2.013-.671-1.371-.802-3.208-.394-5.512.233-1.254.613-2.523 1.137-3.806s1.225-2.596 2.1-3.938 2.013-2.508 3.413-3.5 2.946-1.633 4.637-1.925l-.437 4.638c-1.429.292-2.698 1.035-3.806 2.231-1.108 1.167-1.867 2.567-2.275 4.2zm13.169 0c1.546-.613 2.785-.452 3.719.481s1.21 2.421.831 4.463c-.292 1.517-.933 2.683-1.925 3.5-.963.787-2.085 1.181-3.369 1.181-1.75 0-2.96-.671-3.631-2.013-.671-1.371-.802-3.208-.394-5.512.233-1.254.613-2.523 1.137-3.806s1.225-2.596 2.1-3.938 2.013-2.508 3.413-3.5 2.946-1.633 4.637-1.925l-.437 4.638c-1.429.292-2.698 1.035-3.806 2.231-1.108 1.167-1.867 2.567-2.275 4.2z"/></symbol><symbol id="icon-running-stick-figure" viewBox="0 0 32 32"><path d="M29.647 9.451a1.185 1.185 0 0 0-1.667-.149l-3.282 2.757-1.509-3.739a1.163 1.163 0 0 0-.229-.362 3.215 3.215 0 0 0-1.582-1.617 3.24 3.24 0 0 0-.982-.262c-.073-.038-.139-.088-.222-.114l-5.775-1.61a1.19 1.19 0 0 0-.917.125 1.155 1.155 0 0 0-.719.672l-2.175 5.592a1.188 1.188 0 0 0 .676 1.534 1.187 1.187 0 0 0 1.532-.678l1.837-4.722 2.63.731c-.064.104-.133.201-.185.312l-3.372 7.309c-.049.107-.075.217-.109.328l-4.098 6.871-6.859 2.294a1.751 1.751 0 0 0 2.081 2.819l7.018-2.417c.215-.156.371-.36.489-.58.088-.094.189-.168.256-.284l2.443-4.096 4.337 3.696-4.641 5.23a1.75 1.75 0 1 0 2.622 2.32l5.791-6.524a1.72 1.72 0 0 0 .36-.676c.043-.132.043-.269.054-.406 0-.069.026-.132.021-.196a1.72 1.72 0 0 0-.601-1.274l-3.991-3.403c.288-.274.532-.6.709-.983l2.585-5.599.828 2.206c.035.196.1.388.239.549.125.149.284.248.454.317.017.009.038.01.059.016.107.038.216.075.329.08.133.012.269-.005.405-.043l.005-.002c.036-.009.073-.002.109-.017a1.17 1.17 0 0 0 .466-.34l4.71-3.998c.501-.421.289-1.166-.132-1.667zM23.69 6.602a3.301 3.301 0 1 0 0-6.602 3.301 3.301 0 0 0 0 6.602z"/></symbol><symbol id="icon-dumbbell" viewBox="0 0 32 32"><path d="M7.36 9.143H5.44c-.532 0-.96.459-.96 1.029v4.457h-.96c-.176 0-.32.154-.32.343v2.057c0 .188.144.343.32.343h.96v4.457c0 .57.428 1.028.96 1.028h1.92c.532 0 .96-.459.96-1.028V10.172c0-.57-.428-1.029-.96-1.029zm21.12 5.486h-.96v-4.457c0-.57-.428-1.029-.96-1.029h-1.92c-.532 0-.96.459-.96 1.029v11.657c0 .57.428 1.028.96 1.028h1.92c.532 0 .96-.459.96-1.028v-4.457h.96c.176 0 .32-.154.32-.343v-2.057c0-.189-.144-.343-.32-.343zM21.44 6.4h-1.92c-.532 0-.96.459-.96 1.029v7.2h-5.12v-7.2c0-.57-.428-1.029-.96-1.029h-1.92c-.532 0-.96.459-.96 1.029v17.143c0 .57.428 1.029.96 1.029h1.92c.532 0 .96-.459.96-1.029v-7.2h5.12v7.2c0 .57.428 1.029.96 1.029h1.92c.532 0 .96-.459.96-1.029V7.429c0-.57-.428-1.029-.96-1.029z"/></symbol><symbol id="icon-youtube" viewBox="0 0 32 32"><path d="M24.24 6c-1.36-.08-4.16-.16-8.4-.16h-.56c-4.08 0-6.8.08-8.16.24-1.84.16-3.12.64-3.84 1.28-.64.56-1.12 1.6-1.28 2.96-.08.88-.16 2.72-.16 5.52v.4c0 2.64.08 4.48.24 5.36.24 1.28.64 2.24 1.44 2.8.8.64 2.16 1.04 4.08 1.2 1.36.08 4.16.16 8.4.16h.56c4.08 0 6.8-.08 8.16-.24 1.84-.16 3.12-.64 3.84-1.28.64-.56 1.12-1.6 1.28-2.96.08-.88.16-2.72.16-5.52v-.4c0-2.64-.08-4.48-.24-5.36-.24-1.28-.64-2.24-1.44-2.8-.8-.64-2.16-1.04-4.08-1.2zm-3.12 9.84-8.8 5.28V10.56l8.8 5.28z"/></symbol><symbol id="icon-instagram" viewBox="0 0 32 32"><path d="M28.717 10.756a9.264 9.264 0 0 0-.596-3.145 6.547 6.547 0 0 0-3.743-3.737 9.42 9.42 0 0 0-3.108-.596c-1.368-.061-1.801-.078-5.273-.078s-3.917 0-5.274.078a9.418 9.418 0 0 0-3.106.596 6.541 6.541 0 0 0-3.743 3.737 9.288 9.288 0 0 0-.596 3.101c-.061 1.367-.08 1.8-.08 5.265s0 3.909.08 5.265a9.335 9.335 0 0 0 .596 3.104 6.548 6.548 0 0 0 3.744 3.735 9.37 9.37 0 0 0 3.106.639c1.369.061 1.803.08 5.274.08s3.916 0 5.274-.08a9.357 9.357 0 0 0 3.108-.595 6.555 6.555 0 0 0 3.743-3.737 9.35 9.35 0 0 0 .596-3.104c.061-1.365.08-1.798.08-5.265-.003-3.466-.003-3.906-.082-5.264zM15.99 22.531c-3.631 0-6.572-2.936-6.572-6.561s2.941-6.561 6.572-6.561c3.628 0 6.572 2.936 6.572 6.561s-2.944 6.561-6.572 6.561zm6.833-11.835a1.53 1.53 0 1 1 0-3.06 1.53 1.53 0 1 1 0 3.06z"/><path d="M15.992 19.976a4.004 4.004 0 1 0 0-8.009 4.004 4.004 0 0 0 0 8.009z"/></symbol><symbol id="icon-facebook" viewBox="0 0 32 32"><path d="M19.52 4.64h.96v3.6h-1.2c-.48 0-.96 0-1.2.24s-.24.48-.24 1.04v1.28h2.64v3.04h-2.64v13.2h-4.08V13.76H11.6v-3.04h2.16V9.68c0-1.76.24-3.04.72-3.6.72-1.04 2.16-1.52 4.32-1.52.24.08.48.08.72.08z"/></symbol><symbol id="icon-heart" viewBox="0 0 32 32"><path stroke-linecap="round" stroke-linejoin="round" stroke-width="2.4" d="M27.787 6.147a7.345 7.345 0 0 0-5.187-2.15 7.33 7.33 0 0 0-5.187 2.15L16 7.56l-1.413-1.413a7.333 7.333 0 0 0-10.374 0 7.333 7.333 0 0 0 0 10.374L16 28.308l11.787-11.787a7.345 7.345 0 0 0 2.15-5.187 7.33 7.33 0 0 0-2.15-5.187z"/></symbol></defs></svg>